<?xml version="1.0" standalone="no"?><svg xmlns="http://www.w3.org/2000/svg" viewBox="0 0 1440 320"><path fill="#ffbf00" fill-opacity="1" d="M0,256L6.2,218.7C12.3,181,25,107,37,117.3C49.2,128,62,224,74,240C86.2,256,98,192,111,170.7C123.1,149,135,171,148,149.3C160,128,172,64,185,53.3C196.9,43,209,85,222,90.7C233.8,96,246,64,258,69.3C270.8,75,283,117,295,165.3C307.7,213,320,267,332,293.3C344.6,320,357,320,369,298.7C381.5,277,394,235,406,229.3C418.5,224,431,256,443,250.7C455.4,245,468,203,480,165.3C492.3,128,505,96,517,69.3C529.2,43,542,21,554,32C566.2,43,578,85,591,96C603.1,107,615,85,628,106.7C640,128,652,192,665,224C676.9,256,689,256,702,245.3C713.8,235,726,213,738,197.3C750.8,181,763,171,775,186.7C787.7,203,800,245,812,250.7C824.6,256,837,224,849,192C861.5,160,874,128,886,138.7C898.5,149,911,203,923,234.7C935.4,267,948,277,960,272C972.3,267,985,245,997,245.3C1009.2,245,1022,267,1034,240C1046.2,213,1058,139,1071,90.7C1083.1,43,1095,21,1108,48C1120,75,1132,149,1145,186.7C1156.9,224,1169,224,1182,224C1193.8,224,1206,224,1218,208C1230.8,192,1243,160,1255,133.3C1267.7,107,1280,85,1292,101.3C1304.6,117,1317,171,1329,197.3C1341.5,224,1354,224,1366,202.7C1378.5,181,1391,139,1403,122.7C1415.4,107,1428,117,1434,122.7L1440,128L1440,320L1433.8,320C1427.7,320,1415,320,1403,320C1390.8,320,1378,320,1366,320C1353.8,320,1342,320,1329,320C1316.9,320,1305,320,1292,320C1280,320,1268,320,1255,320C1243.1,320,1231,320,1218,320C1206.2,320,1194,320,1182,320C1169.2,320,1157,320,1145,320C1132.3,320,1120,320,1108,320C1095.4,320,1083,320,1071,320C1058.5,320,1046,320,1034,320C1021.5,320,1009,320,997,320C984.6,320,972,320,960,320C947.7,320,935,320,923,320C910.8,320,898,320,886,320C873.8,320,862,320,849,320C836.9,320,825,320,812,320C800,320,788,320,775,320C763.1,320,751,320,738,320C726.2,320,714,320,702,320C689.2,320,677,320,665,320C652.3,320,640,320,628,320C615.4,320,603,320,591,320C578.5,320,566,320,554,320C541.5,320,529,320,517,320C504.6,320,492,320,480,320C467.7,320,455,320,443,320C430.8,320,418,320,406,320C393.8,320,382,320,369,320C356.9,320,345,320,332,320C320,320,308,320,295,320C283.1,320,271,320,258,320C246.2,320,234,320,222,320C209.2,320,197,320,185,320C172.3,320,160,320,148,320C135.4,320,123,320,111,320C98.5,320,86,320,74,320C61.5,320,49,320,37,320C24.6,320,12,320,6,320L0,320Z"></path></svg>